<svg width="41" height="41" viewBox="0 0 41 41" fill="none" xmlns="http://www.w3.org/2000/svg">
<path fill-rule="evenodd" clip-rule="evenodd" d="M6.37916 8.72057C5.74997 9.61702 5.74997 12.2817 5.74997 17.611V20.2355C5.74997 29.6323 12.8149 34.1924 17.2476 36.1287C18.45 36.6539 19.0512 36.9166 20.75 36.9166C22.4487 36.9166 23.0499 36.6539 24.2524 36.1287C28.685 34.1924 35.75 29.6323 35.75 20.2355V17.611C35.75 12.2817 35.75 9.61702 35.1208 8.72057C34.4916 7.82412 31.9861 6.96648 26.9751 5.25121L26.0204 4.92442C23.4083 4.03029 22.1023 3.58322 20.75 3.58322C19.3977 3.58322 18.0916 4.03029 15.4795 4.92442L14.5248 5.25121C9.51384 6.96648 7.00835 7.82412 6.37916 8.72057ZM25.8491 17.7491C26.3088 17.2341 26.2641 16.4439 25.7492 15.9841C25.2342 15.5243 24.444 15.5691 23.9842 16.084L18.9643 21.7064L17.5157 20.084C17.0559 19.5691 16.2657 19.5243 15.7508 19.9841C15.2358 20.4439 15.1911 21.2341 15.6509 21.7491L18.0318 24.4157C18.269 24.6814 18.6082 24.8332 18.9643 24.8332C19.3203 24.8332 19.6595 24.6814 19.8967 24.4157L25.8491 17.7491Z" fill="#1A1528"/>
</svg>
