<svg width="41" height="41" viewBox="0 0 41 41" fill="none" xmlns="http://www.w3.org/2000/svg">
<path fill-rule="evenodd" clip-rule="evenodd" d="M31.8785 24.9005C36.3738 20.4052 36.3738 13.1168 31.8785 8.6214C27.3831 4.12604 20.0947 4.12604 15.5993 8.6214C12.6144 11.6063 11.6115 15.8226 12.5905 19.6351C12.7484 20.25 12.6082 20.9149 12.1593 21.3638L5.97246 27.5506C5.4426 28.0805 5.18232 28.8225 5.26507 29.5672L5.65185 33.0482C5.69309 33.4193 5.8594 33.7654 6.12344 34.0294L6.47046 34.3764C6.7345 34.6405 7.08054 34.8068 7.45166 34.848L10.9326 35.2348C11.6774 35.3175 12.4194 35.0573 12.9492 34.5274L14.1326 33.344L11.2224 30.4656C10.7315 29.9801 10.7272 29.1887 11.2126 28.6979C11.6981 28.207 12.4895 28.2027 12.9804 28.6881L15.9004 31.5762L19.1365 28.3401C19.5854 27.8912 20.2499 27.7514 20.8648 27.9093C24.6772 28.8884 28.8935 27.8854 31.8785 24.9005ZM21.2263 14.5595C22.528 13.2578 24.6386 13.2578 25.9403 14.5595C27.2421 15.8613 27.2421 17.9718 25.9403 19.2736C24.6386 20.5753 22.528 20.5753 21.2263 19.2736C19.9245 17.9718 19.9245 15.8613 21.2263 14.5595Z" fill="#1A1528"/>
</svg>
